# xmcd
#
# Track frame offsets: 
#        150
#        82350
#        154200
#        180845
#        234112
#
# Disc length: 3646 seconds
#
# Revision: 0
# Processed by: cddbd v1.5.2PL0 Copyright (c) Steve Scherf et al.
# Submitted via: ExactAudioCopy v1.0b1
#
DISCID=300e3c05
DTITLE=Eugen Jochum - Beethoven Symphony No.3 in E-flat major, op.55 "
DTITLE=Eroica" ,Japan EMI ,CD2
DYEAR=2002
DGENRE=Classical
TTITLE0=Symphony No.3 in E-flat major, op.55 "Eroica"-I. Allegro con b
TTITLE0=rio
TTITLE1=II. Marcia funebre: Adagio assai
TTITLE2=III. Scherzo: Allegro vivace
TTITLE3=IV. Finale: Allegro molto
TTITLE4=Egmont overture op. 84
EXTD=
EXTT0=
EXTT1=
EXTT2=
EXTT3=
EXTT4=
PLAYORDER=
